<mxfile host="app.diagrams.net" modified="2024-01-14T16:47:56.268Z" agent="Mozilla/5.0 (Windows NT 10.0; Win64; x64; rv:121.0) Gecko/20100101 Firefox/121.0" etag="y9nMnHVJQ1SyTpkIqY2n" version="22.1.18" type="github">
  <diagram id="C5RBs43oDa-KdzZeNtuy" name="Page-1">
    <mxGraphModel dx="2422" dy="851" grid="1" gridSize="10" guides="1" tooltips="1" connect="1" arrows="1" fold="1" page="1" pageScale="1" pageWidth="827" pageHeight="1169" math="0" shadow="0">
      <root>
        <mxCell id="WIyWlLk6GJQsqaUBKTNV-0" />
        <mxCell id="WIyWlLk6GJQsqaUBKTNV-1" parent="WIyWlLk6GJQsqaUBKTNV-0" />
        <mxCell id="7q_L9Nf2sgbVmSKI1FaD-2" style="edgeStyle=orthogonalEdgeStyle;rounded=0;orthogonalLoop=1;jettySize=auto;html=1;entryX=0.5;entryY=0;entryDx=0;entryDy=0;" edge="1" parent="WIyWlLk6GJQsqaUBKTNV-1" source="WIyWlLk6GJQsqaUBKTNV-3" target="7q_L9Nf2sgbVmSKI1FaD-1">
          <mxGeometry relative="1" as="geometry" />
        </mxCell>
        <mxCell id="WIyWlLk6GJQsqaUBKTNV-3" value="BubbleSpawner:&lt;br&gt;&lt;div&gt;Spawn new bubble to supply&amp;nbsp; tube&lt;br&gt;&lt;/div&gt;" style="rounded=1;whiteSpace=wrap;html=1;fontSize=12;glass=0;strokeWidth=1;shadow=0;" parent="WIyWlLk6GJQsqaUBKTNV-1" vertex="1">
          <mxGeometry x="160" y="80" width="120" height="40" as="geometry" />
        </mxCell>
        <mxCell id="WIyWlLk6GJQsqaUBKTNV-8" value="No" style="rounded=0;html=1;jettySize=auto;orthogonalLoop=1;fontSize=11;endArrow=block;endFill=0;endSize=8;strokeWidth=1;shadow=0;labelBackgroundColor=none;edgeStyle=orthogonalEdgeStyle;exitX=0.5;exitY=1;exitDx=0;exitDy=0;entryX=1;entryY=0.5;entryDx=0;entryDy=0;" parent="WIyWlLk6GJQsqaUBKTNV-1" source="WIyWlLk6GJQsqaUBKTNV-10" target="7q_L9Nf2sgbVmSKI1FaD-0" edge="1">
          <mxGeometry x="0.3333" y="20" relative="1" as="geometry">
            <mxPoint as="offset" />
            <mxPoint x="250" y="470" as="targetPoint" />
            <Array as="points">
              <mxPoint x="220" y="470" />
              <mxPoint x="300" y="470" />
              <mxPoint x="300" y="320" />
            </Array>
          </mxGeometry>
        </mxCell>
        <mxCell id="WIyWlLk6GJQsqaUBKTNV-9" value="Yes" style="edgeStyle=orthogonalEdgeStyle;rounded=0;html=1;jettySize=auto;orthogonalLoop=1;fontSize=11;endArrow=block;endFill=0;endSize=8;strokeWidth=1;shadow=0;labelBackgroundColor=none;entryX=0.5;entryY=1;entryDx=0;entryDy=0;" parent="WIyWlLk6GJQsqaUBKTNV-1" source="WIyWlLk6GJQsqaUBKTNV-10" target="7q_L9Nf2sgbVmSKI1FaD-3" edge="1">
          <mxGeometry y="10" relative="1" as="geometry">
            <mxPoint as="offset" />
          </mxGeometry>
        </mxCell>
        <mxCell id="7q_L9Nf2sgbVmSKI1FaD-15" style="edgeStyle=orthogonalEdgeStyle;rounded=0;orthogonalLoop=1;jettySize=auto;html=1;entryX=0.5;entryY=0;entryDx=0;entryDy=0;" edge="1" parent="WIyWlLk6GJQsqaUBKTNV-1" source="WIyWlLk6GJQsqaUBKTNV-10" target="7q_L9Nf2sgbVmSKI1FaD-18">
          <mxGeometry relative="1" as="geometry">
            <mxPoint x="220" y="510" as="targetPoint" />
          </mxGeometry>
        </mxCell>
        <mxCell id="WIyWlLk6GJQsqaUBKTNV-10" value="Path blocked?" style="rhombus;whiteSpace=wrap;html=1;shadow=0;fontFamily=Helvetica;fontSize=12;align=center;strokeWidth=1;spacing=6;spacingTop=-4;" parent="WIyWlLk6GJQsqaUBKTNV-1" vertex="1">
          <mxGeometry x="170" y="370" width="100" height="80" as="geometry" />
        </mxCell>
        <mxCell id="7q_L9Nf2sgbVmSKI1FaD-12" style="edgeStyle=orthogonalEdgeStyle;rounded=0;orthogonalLoop=1;jettySize=auto;html=1;entryX=0.5;entryY=0;entryDx=0;entryDy=0;" edge="1" parent="WIyWlLk6GJQsqaUBKTNV-1" source="7q_L9Nf2sgbVmSKI1FaD-0" target="WIyWlLk6GJQsqaUBKTNV-10">
          <mxGeometry relative="1" as="geometry" />
        </mxCell>
        <mxCell id="7q_L9Nf2sgbVmSKI1FaD-0" value="BubbleMover:&lt;br&gt;Move bubble(s) forward" style="rounded=1;whiteSpace=wrap;html=1;fontSize=12;glass=0;strokeWidth=1;shadow=0;" vertex="1" parent="WIyWlLk6GJQsqaUBKTNV-1">
          <mxGeometry x="160" y="300" width="120" height="40" as="geometry" />
        </mxCell>
        <mxCell id="7q_L9Nf2sgbVmSKI1FaD-4" value="" style="edgeStyle=orthogonalEdgeStyle;rounded=0;orthogonalLoop=1;jettySize=auto;html=1;" edge="1" parent="WIyWlLk6GJQsqaUBKTNV-1" source="7q_L9Nf2sgbVmSKI1FaD-1" target="7q_L9Nf2sgbVmSKI1FaD-3">
          <mxGeometry relative="1" as="geometry" />
        </mxCell>
        <mxCell id="7q_L9Nf2sgbVmSKI1FaD-5" value="Yes" style="edgeLabel;html=1;align=center;verticalAlign=middle;resizable=0;points=[];" vertex="1" connectable="0" parent="7q_L9Nf2sgbVmSKI1FaD-4">
          <mxGeometry x="-0.1892" y="-3" relative="1" as="geometry">
            <mxPoint as="offset" />
          </mxGeometry>
        </mxCell>
        <mxCell id="7q_L9Nf2sgbVmSKI1FaD-10" value="" style="edgeStyle=orthogonalEdgeStyle;rounded=0;orthogonalLoop=1;jettySize=auto;html=1;" edge="1" parent="WIyWlLk6GJQsqaUBKTNV-1" source="7q_L9Nf2sgbVmSKI1FaD-1" target="7q_L9Nf2sgbVmSKI1FaD-0">
          <mxGeometry relative="1" as="geometry">
            <mxPoint x="220" y="300" as="targetPoint" />
          </mxGeometry>
        </mxCell>
        <mxCell id="7q_L9Nf2sgbVmSKI1FaD-11" value="No" style="edgeLabel;html=1;align=center;verticalAlign=middle;resizable=0;points=[];" vertex="1" connectable="0" parent="7q_L9Nf2sgbVmSKI1FaD-10">
          <mxGeometry x="-0.1103" y="1" relative="1" as="geometry">
            <mxPoint as="offset" />
          </mxGeometry>
        </mxCell>
        <mxCell id="7q_L9Nf2sgbVmSKI1FaD-1" value="Supply&amp;nbsp; tube full?" style="rhombus;whiteSpace=wrap;html=1;shadow=0;fontFamily=Helvetica;fontSize=12;align=center;strokeWidth=1;spacing=6;spacingTop=-4;" vertex="1" parent="WIyWlLk6GJQsqaUBKTNV-1">
          <mxGeometry x="170" y="150" width="100" height="80" as="geometry" />
        </mxCell>
        <mxCell id="7q_L9Nf2sgbVmSKI1FaD-9" value="" style="edgeStyle=orthogonalEdgeStyle;rounded=0;orthogonalLoop=1;jettySize=auto;html=1;" edge="1" parent="WIyWlLk6GJQsqaUBKTNV-1" source="7q_L9Nf2sgbVmSKI1FaD-3" target="7q_L9Nf2sgbVmSKI1FaD-8">
          <mxGeometry relative="1" as="geometry" />
        </mxCell>
        <mxCell id="7q_L9Nf2sgbVmSKI1FaD-3" value="Game Over" style="rounded=1;whiteSpace=wrap;html=1;shadow=0;strokeWidth=1;spacing=6;spacingTop=-4;" vertex="1" parent="WIyWlLk6GJQsqaUBKTNV-1">
          <mxGeometry x="10" y="175" width="90" height="30" as="geometry" />
        </mxCell>
        <mxCell id="7q_L9Nf2sgbVmSKI1FaD-8" value="&lt;div&gt;- Show score&lt;/div&gt;&lt;div&gt;- Display restart button&lt;br&gt;&lt;/div&gt;" style="whiteSpace=wrap;html=1;rounded=1;shadow=0;strokeWidth=1;spacing=6;spacingTop=-4;" vertex="1" parent="WIyWlLk6GJQsqaUBKTNV-1">
          <mxGeometry x="-175" y="160" width="120" height="60" as="geometry" />
        </mxCell>
        <mxCell id="7q_L9Nf2sgbVmSKI1FaD-17" value="&lt;div&gt;&lt;ul&gt;&lt;li data-list=&quot;bullet&quot;&gt;randomly choose color from defined bubble color options&lt;/li&gt;&lt;li data-list=&quot;bullet&quot;&gt;set bubble color&lt;/li&gt;&lt;li data-list=&quot;bullet&quot;&gt;spawn bubble at starting position of supply tube&lt;/li&gt;&lt;/ul&gt;&lt;/div&gt;" style="text;html=1;strokeColor=none;fillColor=none;align=left;verticalAlign=middle;whiteSpace=wrap;rounded=0;labelPosition=center;verticalLabelPosition=middle;" vertex="1" parent="WIyWlLk6GJQsqaUBKTNV-1">
          <mxGeometry x="280" y="80" width="370" height="40" as="geometry" />
        </mxCell>
        <mxCell id="7q_L9Nf2sgbVmSKI1FaD-20" value="" style="edgeStyle=orthogonalEdgeStyle;rounded=0;orthogonalLoop=1;jettySize=auto;html=1;entryX=0.5;entryY=0;entryDx=0;entryDy=0;" edge="1" parent="WIyWlLk6GJQsqaUBKTNV-1" source="7q_L9Nf2sgbVmSKI1FaD-18" target="7q_L9Nf2sgbVmSKI1FaD-21">
          <mxGeometry relative="1" as="geometry">
            <mxPoint x="230.03448275862047" y="600" as="targetPoint" />
          </mxGeometry>
        </mxCell>
        <mxCell id="7q_L9Nf2sgbVmSKI1FaD-22" value="Yes" style="edgeLabel;html=1;align=center;verticalAlign=middle;resizable=0;points=[];" vertex="1" connectable="0" parent="7q_L9Nf2sgbVmSKI1FaD-20">
          <mxGeometry x="0.08" y="3" relative="1" as="geometry">
            <mxPoint x="-3" y="-12" as="offset" />
          </mxGeometry>
        </mxCell>
        <mxCell id="7q_L9Nf2sgbVmSKI1FaD-23" style="edgeStyle=orthogonalEdgeStyle;rounded=0;orthogonalLoop=1;jettySize=auto;html=1;endArrow=none;endFill=0;" edge="1" parent="WIyWlLk6GJQsqaUBKTNV-1" source="7q_L9Nf2sgbVmSKI1FaD-18">
          <mxGeometry relative="1" as="geometry">
            <mxPoint x="290" y="320" as="targetPoint" />
            <Array as="points">
              <mxPoint x="320" y="530" />
              <mxPoint x="320" y="320" />
            </Array>
          </mxGeometry>
        </mxCell>
        <mxCell id="7q_L9Nf2sgbVmSKI1FaD-24" value="No" style="edgeLabel;html=1;align=center;verticalAlign=middle;resizable=0;points=[];" vertex="1" connectable="0" parent="7q_L9Nf2sgbVmSKI1FaD-23">
          <mxGeometry x="0.0089" relative="1" as="geometry">
            <mxPoint as="offset" />
          </mxGeometry>
        </mxCell>
        <mxCell id="7q_L9Nf2sgbVmSKI1FaD-18" value="Bubble reached color tubes?" style="rhombus;whiteSpace=wrap;html=1;shadow=0;fontFamily=Helvetica;fontSize=12;align=center;strokeWidth=1;spacing=6;spacingTop=-4;" vertex="1" parent="WIyWlLk6GJQsqaUBKTNV-1">
          <mxGeometry x="170" y="490" width="100" height="80" as="geometry" />
        </mxCell>
        <mxCell id="7q_L9Nf2sgbVmSKI1FaD-27" value="" style="edgeStyle=orthogonalEdgeStyle;rounded=0;orthogonalLoop=1;jettySize=auto;html=1;entryX=0.5;entryY=0;entryDx=0;entryDy=0;" edge="1" parent="WIyWlLk6GJQsqaUBKTNV-1" source="7q_L9Nf2sgbVmSKI1FaD-21" target="7q_L9Nf2sgbVmSKI1FaD-29">
          <mxGeometry relative="1" as="geometry">
            <mxPoint x="220" y="740.0000000000002" as="targetPoint" />
          </mxGeometry>
        </mxCell>
        <mxCell id="7q_L9Nf2sgbVmSKI1FaD-28" value="&amp;lt;Player switching bubbles&amp;gt;&lt;br&gt;&amp;lt;Bubbles moving downwards&amp;gt;" style="edgeLabel;html=1;align=center;verticalAlign=middle;resizable=0;points=[];" vertex="1" connectable="0" parent="7q_L9Nf2sgbVmSKI1FaD-27">
          <mxGeometry x="-0.0758" y="1" relative="1" as="geometry">
            <mxPoint as="offset" />
          </mxGeometry>
        </mxCell>
        <mxCell id="7q_L9Nf2sgbVmSKI1FaD-21" value="BubbleSorter:&lt;br&gt;Sort bubble into color tubes" style="rounded=1;whiteSpace=wrap;html=1;fontSize=12;glass=0;strokeWidth=1;shadow=0;" vertex="1" parent="WIyWlLk6GJQsqaUBKTNV-1">
          <mxGeometry x="160" y="620" width="120" height="40" as="geometry" />
        </mxCell>
        <mxCell id="7q_L9Nf2sgbVmSKI1FaD-25" value="&lt;div&gt;&lt;ul&gt;&lt;li data-list=&quot;bullet&quot;&gt;randomly choose one of the four color tubes&lt;br&gt;&lt;/li&gt;&lt;li data-list=&quot;bullet&quot;&gt;set color tube first cell as next place?&lt;br&gt;&lt;/li&gt;&lt;/ul&gt;&lt;/div&gt;" style="text;html=1;strokeColor=none;fillColor=none;align=left;verticalAlign=middle;whiteSpace=wrap;rounded=0;labelPosition=center;verticalLabelPosition=middle;" vertex="1" parent="WIyWlLk6GJQsqaUBKTNV-1">
          <mxGeometry x="280" y="620" width="370" height="40" as="geometry" />
        </mxCell>
        <mxCell id="7q_L9Nf2sgbVmSKI1FaD-31" style="edgeStyle=orthogonalEdgeStyle;rounded=0;orthogonalLoop=1;jettySize=auto;html=1;" edge="1" parent="WIyWlLk6GJQsqaUBKTNV-1" source="7q_L9Nf2sgbVmSKI1FaD-29" target="7q_L9Nf2sgbVmSKI1FaD-40">
          <mxGeometry relative="1" as="geometry">
            <mxPoint x="330" y="700" as="targetPoint" />
          </mxGeometry>
        </mxCell>
        <mxCell id="7q_L9Nf2sgbVmSKI1FaD-32" value="No" style="edgeLabel;html=1;align=center;verticalAlign=middle;resizable=0;points=[];" vertex="1" connectable="0" parent="7q_L9Nf2sgbVmSKI1FaD-31">
          <mxGeometry x="0.2714" y="-3" relative="1" as="geometry">
            <mxPoint as="offset" />
          </mxGeometry>
        </mxCell>
        <mxCell id="7q_L9Nf2sgbVmSKI1FaD-34" value="" style="edgeStyle=orthogonalEdgeStyle;rounded=0;orthogonalLoop=1;jettySize=auto;html=1;" edge="1" parent="WIyWlLk6GJQsqaUBKTNV-1" source="7q_L9Nf2sgbVmSKI1FaD-29" target="7q_L9Nf2sgbVmSKI1FaD-33">
          <mxGeometry relative="1" as="geometry" />
        </mxCell>
        <mxCell id="7q_L9Nf2sgbVmSKI1FaD-35" value="Yes" style="edgeLabel;html=1;align=center;verticalAlign=middle;resizable=0;points=[];" vertex="1" connectable="0" parent="7q_L9Nf2sgbVmSKI1FaD-34">
          <mxGeometry x="-0.3213" y="-3" relative="1" as="geometry">
            <mxPoint as="offset" />
          </mxGeometry>
        </mxCell>
        <mxCell id="7q_L9Nf2sgbVmSKI1FaD-29" value="Bubble reached end of color tube?" style="rhombus;whiteSpace=wrap;html=1;shadow=0;fontFamily=Helvetica;fontSize=12;align=center;strokeWidth=1;spacing=6;spacingTop=-4;" vertex="1" parent="WIyWlLk6GJQsqaUBKTNV-1">
          <mxGeometry x="170" y="740" width="100" height="80" as="geometry" />
        </mxCell>
        <mxCell id="7q_L9Nf2sgbVmSKI1FaD-37" style="edgeStyle=orthogonalEdgeStyle;rounded=0;orthogonalLoop=1;jettySize=auto;html=1;" edge="1" parent="WIyWlLk6GJQsqaUBKTNV-1" source="7q_L9Nf2sgbVmSKI1FaD-33">
          <mxGeometry relative="1" as="geometry">
            <mxPoint x="100" y="780.0000000000002" as="targetPoint" />
          </mxGeometry>
        </mxCell>
        <mxCell id="7q_L9Nf2sgbVmSKI1FaD-38" value="No" style="edgeLabel;html=1;align=center;verticalAlign=middle;resizable=0;points=[];" vertex="1" connectable="0" parent="7q_L9Nf2sgbVmSKI1FaD-37">
          <mxGeometry x="0.3966" relative="1" as="geometry">
            <mxPoint as="offset" />
          </mxGeometry>
        </mxCell>
        <mxCell id="7q_L9Nf2sgbVmSKI1FaD-42" value="" style="edgeStyle=orthogonalEdgeStyle;rounded=0;orthogonalLoop=1;jettySize=auto;html=1;" edge="1" parent="WIyWlLk6GJQsqaUBKTNV-1" source="7q_L9Nf2sgbVmSKI1FaD-33" target="7q_L9Nf2sgbVmSKI1FaD-41">
          <mxGeometry relative="1" as="geometry" />
        </mxCell>
        <mxCell id="7q_L9Nf2sgbVmSKI1FaD-44" value="Yes" style="edgeLabel;html=1;align=center;verticalAlign=middle;resizable=0;points=[];" vertex="1" connectable="0" parent="7q_L9Nf2sgbVmSKI1FaD-42">
          <mxGeometry x="-0.3342" relative="1" as="geometry">
            <mxPoint as="offset" />
          </mxGeometry>
        </mxCell>
        <mxCell id="7q_L9Nf2sgbVmSKI1FaD-33" value="Bubble color matches tube color?" style="rhombus;whiteSpace=wrap;html=1;shadow=0;fontFamily=Helvetica;fontSize=12;align=center;strokeWidth=1;spacing=6;spacingTop=-4;" vertex="1" parent="WIyWlLk6GJQsqaUBKTNV-1">
          <mxGeometry x="170" y="870" width="100" height="80" as="geometry" />
        </mxCell>
        <mxCell id="7q_L9Nf2sgbVmSKI1FaD-39" value="// do nothing" style="text;html=1;align=center;verticalAlign=middle;resizable=0;points=[];autosize=1;strokeColor=none;fillColor=none;" vertex="1" parent="WIyWlLk6GJQsqaUBKTNV-1">
          <mxGeometry x="55" y="748" width="90" height="30" as="geometry" />
        </mxCell>
        <mxCell id="7q_L9Nf2sgbVmSKI1FaD-40" value="// repeat movement" style="text;html=1;align=center;verticalAlign=middle;resizable=0;points=[];autosize=1;strokeColor=none;fillColor=none;" vertex="1" parent="WIyWlLk6GJQsqaUBKTNV-1">
          <mxGeometry x="304" y="680" width="130" height="30" as="geometry" />
        </mxCell>
        <mxCell id="7q_L9Nf2sgbVmSKI1FaD-46" value="" style="edgeStyle=orthogonalEdgeStyle;rounded=0;orthogonalLoop=1;jettySize=auto;html=1;" edge="1" parent="WIyWlLk6GJQsqaUBKTNV-1" source="7q_L9Nf2sgbVmSKI1FaD-41" target="7q_L9Nf2sgbVmSKI1FaD-45">
          <mxGeometry relative="1" as="geometry" />
        </mxCell>
        <mxCell id="7q_L9Nf2sgbVmSKI1FaD-49" value="No" style="edgeLabel;html=1;align=center;verticalAlign=middle;resizable=0;points=[];" vertex="1" connectable="0" parent="7q_L9Nf2sgbVmSKI1FaD-46">
          <mxGeometry x="-0.0495" y="1" relative="1" as="geometry">
            <mxPoint as="offset" />
          </mxGeometry>
        </mxCell>
        <mxCell id="7q_L9Nf2sgbVmSKI1FaD-47" style="edgeStyle=orthogonalEdgeStyle;rounded=0;orthogonalLoop=1;jettySize=auto;html=1;exitX=0.5;exitY=1;exitDx=0;exitDy=0;entryX=1;entryY=0.5;entryDx=0;entryDy=0;" edge="1" parent="WIyWlLk6GJQsqaUBKTNV-1" source="7q_L9Nf2sgbVmSKI1FaD-41" target="7q_L9Nf2sgbVmSKI1FaD-41">
          <mxGeometry relative="1" as="geometry">
            <mxPoint x="320" y="1100.0000000000002" as="targetPoint" />
          </mxGeometry>
        </mxCell>
        <mxCell id="7q_L9Nf2sgbVmSKI1FaD-48" value="Yes" style="edgeLabel;html=1;align=center;verticalAlign=middle;resizable=0;points=[];" vertex="1" connectable="0" parent="7q_L9Nf2sgbVmSKI1FaD-47">
          <mxGeometry x="0.3447" y="-1" relative="1" as="geometry">
            <mxPoint as="offset" />
          </mxGeometry>
        </mxCell>
        <mxCell id="7q_L9Nf2sgbVmSKI1FaD-41" value="Previous bubble also matches?" style="rhombus;whiteSpace=wrap;html=1;shadow=0;fontFamily=Helvetica;fontSize=12;align=center;strokeWidth=1;spacing=6;spacingTop=-4;" vertex="1" parent="WIyWlLk6GJQsqaUBKTNV-1">
          <mxGeometry x="170" y="1000" width="100" height="80" as="geometry" />
        </mxCell>
        <mxCell id="7q_L9Nf2sgbVmSKI1FaD-45" value="&lt;div&gt;- Fall into container&lt;br&gt;- Increaase score&lt;/div&gt;" style="rounded=1;whiteSpace=wrap;html=1;shadow=0;strokeWidth=1;spacing=6;spacingTop=-4;" vertex="1" parent="WIyWlLk6GJQsqaUBKTNV-1">
          <mxGeometry x="160" y="1150" width="120" height="60" as="geometry" />
        </mxCell>
        <mxCell id="7q_L9Nf2sgbVmSKI1FaD-52" value="MVP" style="swimlane;fontStyle=0;childLayout=stackLayout;horizontal=1;startSize=30;horizontalStack=0;resizeParent=1;resizeParentMax=0;resizeLast=0;collapsible=1;marginBottom=0;whiteSpace=wrap;html=1;" vertex="1" parent="WIyWlLk6GJQsqaUBKTNV-1">
          <mxGeometry x="-560" y="160" width="280" height="180" as="geometry" />
        </mxCell>
        <mxCell id="7q_L9Nf2sgbVmSKI1FaD-53" value="- Spawn bubbles on button/keyboard click" style="text;strokeColor=none;fillColor=none;align=left;verticalAlign=middle;spacingLeft=4;spacingRight=4;overflow=hidden;points=[[0,0.5],[1,0.5]];portConstraint=eastwest;rotatable=0;whiteSpace=wrap;html=1;" vertex="1" parent="7q_L9Nf2sgbVmSKI1FaD-52">
          <mxGeometry y="30" width="280" height="30" as="geometry" />
        </mxCell>
        <mxCell id="7q_L9Nf2sgbVmSKI1FaD-54" value="- Move bubbles forward" style="text;strokeColor=none;fillColor=none;align=left;verticalAlign=middle;spacingLeft=4;spacingRight=4;overflow=hidden;points=[[0,0.5],[1,0.5]];portConstraint=eastwest;rotatable=0;whiteSpace=wrap;html=1;" vertex="1" parent="7q_L9Nf2sgbVmSKI1FaD-52">
          <mxGeometry y="60" width="280" height="30" as="geometry" />
        </mxCell>
        <mxCell id="7q_L9Nf2sgbVmSKI1FaD-55" value="- Switch bubbles" style="text;strokeColor=none;fillColor=none;align=left;verticalAlign=middle;spacingLeft=4;spacingRight=4;overflow=hidden;points=[[0,0.5],[1,0.5]];portConstraint=eastwest;rotatable=0;whiteSpace=wrap;html=1;" vertex="1" parent="7q_L9Nf2sgbVmSKI1FaD-52">
          <mxGeometry y="90" width="280" height="30" as="geometry" />
        </mxCell>
        <mxCell id="7q_L9Nf2sgbVmSKI1FaD-56" value="- Check if supply tube is full" style="text;strokeColor=none;fillColor=none;align=left;verticalAlign=middle;spacingLeft=4;spacingRight=4;overflow=hidden;points=[[0,0.5],[1,0.5]];portConstraint=eastwest;rotatable=0;whiteSpace=wrap;html=1;" vertex="1" parent="7q_L9Nf2sgbVmSKI1FaD-52">
          <mxGeometry y="120" width="280" height="30" as="geometry" />
        </mxCell>
        <mxCell id="7q_L9Nf2sgbVmSKI1FaD-57" value="- Switch bubbles" style="text;strokeColor=none;fillColor=none;align=left;verticalAlign=middle;spacingLeft=4;spacingRight=4;overflow=hidden;points=[[0,0.5],[1,0.5]];portConstraint=eastwest;rotatable=0;whiteSpace=wrap;html=1;" vertex="1" parent="7q_L9Nf2sgbVmSKI1FaD-52">
          <mxGeometry y="150" width="280" height="30" as="geometry" />
        </mxCell>
      </root>
    </mxGraphModel>
  </diagram>
</mxfile>
